<svg width="978" height="559" viewBox="0 0 978 559" fill="none" xmlns="http://www.w3.org/2000/svg">
<path fill-rule="evenodd" clip-rule="evenodd" d="M319.636 167.363H240.835V69H319.636V167.363ZM0 167.363V69H126.196C147.895 69 166.881 73.2827 183.156 81.848C199.43 90.4133 212.087 102.452 221.129 117.965C229.437 132.221 233.928 148.687 234.601 167.363H151.664C151.075 161.107 149.343 155.633 146.467 150.942C142.946 144.946 137.854 140.378 131.192 137.237C124.626 134.001 116.679 132.384 107.352 132.384H79.3722V167.363H0ZM898.639 167.363C896.678 164.595 894.497 161.976 892.097 159.507C879.059 145.993 862.023 139.236 840.991 139.236C824.717 139.236 810.536 143.328 798.45 151.513C791.771 155.983 786.371 161.266 782.25 167.363H898.639ZM766.744 167.363C763.294 161.266 758.492 155.983 752.34 151.513C741.205 143.328 727.928 139.236 712.511 139.236C697.283 139.236 684.15 143.233 673.11 151.227C666.922 155.709 661.75 161.087 657.595 167.363H766.744ZM647.414 167.363H572.61V142.091H647.414V167.363ZM556.652 167.363H477.85V142.091H556.652V167.363ZM414.467 167.363H335.666V142.091H414.467V167.363Z" fill="#AF94F9"/>
<path fill-rule="evenodd" clip-rule="evenodd" d="M388.636 69.3633H309.835V0H388.636V69.3633ZM69 69.3633V0H195.196C216.895 0 235.881 3.02003 252.156 9.06009C268.43 15.1001 281.087 23.5898 290.129 34.529C298.437 44.5818 302.928 56.1933 303.601 69.3633H220.664C220.075 64.9517 218.343 61.0917 215.467 57.7832C211.946 53.5552 206.854 50.3338 200.192 48.1191C193.626 45.8373 185.679 44.6964 176.352 44.6964H148.372V69.3633H69ZM967.639 69.3633C965.678 67.4113 963.497 65.5647 961.097 63.8233C948.059 54.2934 931.023 49.5285 909.991 49.5285C893.717 49.5285 879.536 52.4143 867.45 58.1859C860.771 61.338 855.371 65.0638 851.25 69.3633H967.639ZM835.744 69.3633C832.294 65.0638 827.492 61.338 821.34 58.1859C810.205 52.4143 796.928 49.5285 781.511 49.5285C766.283 49.5285 753.15 52.3472 742.11 57.9846C735.922 61.1448 730.75 64.9377 726.595 69.3633H835.744ZM716.414 69.3633H641.61V51.5418H716.414V69.3633ZM625.652 69.3633H546.85V51.5418H625.652V69.3633ZM483.467 69.3633H404.666V51.5418H483.467V69.3633Z" fill="#AF94F9"/>
<path fill-rule="evenodd" clip-rule="evenodd" d="M321.636 460H242.835V558.363H321.636V460ZM2 460V558.363H128.196C149.895 558.363 168.881 554.081 185.156 545.515C201.43 536.95 214.087 524.911 223.129 509.398C231.437 495.142 235.928 478.676 236.601 460H153.664C153.075 466.256 151.343 471.73 148.467 476.422C144.946 482.417 139.854 486.985 133.192 490.126C126.626 493.362 118.679 494.98 109.352 494.98H81.3722V460H2ZM900.639 460C898.678 462.768 896.497 465.387 894.097 467.856C881.059 481.37 864.023 488.127 842.991 488.127C826.717 488.127 812.536 484.035 800.45 475.85C793.771 471.381 788.371 466.097 784.25 460H900.639ZM768.744 460C765.294 466.097 760.492 471.381 754.34 475.85C743.205 484.035 729.928 488.127 714.511 488.127C699.283 488.127 686.15 484.13 675.11 476.136C668.922 471.655 663.75 466.276 659.595 460H768.744ZM649.414 460H574.61V485.272H649.414V460ZM558.652 460H479.85V485.272H558.652V460ZM416.467 460H337.666V485.272H416.467V460Z" fill="#AF94F9"/>
<path fill-rule="evenodd" clip-rule="evenodd" d="M47 364V460.364H126.372V373.568H170.341C189.888 373.568 207.272 370.379 222.493 364H47ZM287.835 364V460.364H366.636V364H287.835ZM382.666 364V380.991C382.761 396.98 385.949 411.161 392.23 423.533C398.607 435.905 407.505 445.612 418.926 452.655C430.441 459.697 443.86 463.219 459.183 463.219C475.552 463.219 489.685 459.317 501.581 451.513C513.478 443.614 521.805 432.669 526.563 418.679H528.848V460.364H603.652V364H524.85V364.432C524.946 371.665 523.661 377.898 520.996 383.133C518.426 388.272 514.715 392.269 509.861 395.124C505.103 397.884 499.44 399.264 492.873 399.264C482.975 399.264 475.267 396.171 469.747 389.985C464.322 383.799 461.562 375.281 461.467 364.432V364H382.666ZM619.61 364V460.364H698.411V364H619.61ZM751.516 364V460.364H826.891V364H751.516ZM879.997 364V460.364H958.798V364H879.997Z" fill="#AF94F9"/>
<path fill-rule="evenodd" clip-rule="evenodd" d="M385.479 364H306.678V167H385.479V364ZM717.255 364H638.454V240.091H713.258V281.776H715.542C720.11 268.071 727.914 257.222 738.954 249.227C749.994 241.233 763.127 237.236 778.354 237.236C793.772 237.236 807.048 241.328 818.183 249.513C829.318 257.602 836.028 268.357 838.312 281.776H840.596C844.308 268.357 852.207 257.602 864.293 249.513C876.38 241.328 890.56 237.236 906.835 237.236C927.867 237.236 944.903 243.993 957.941 257.507C971.075 271.021 977.641 289.009 977.641 311.469V364H898.84V331.455C898.84 321.842 896.413 314.324 891.56 308.899C886.706 303.379 880.187 300.619 872.002 300.619C863.913 300.619 857.489 303.379 852.73 308.899C848.067 314.324 845.735 321.842 845.735 331.455V364H770.36V331.455C770.36 321.842 767.933 314.324 763.08 308.899C758.226 303.379 751.707 300.619 743.522 300.619C738.097 300.619 733.434 301.857 729.532 304.331C725.63 306.805 722.585 310.374 720.396 315.038C718.302 319.606 717.255 325.078 717.255 331.455V364ZM622.495 364H543.699C543.698 363.811 543.697 363.622 543.694 363.432V240.091H622.495V364ZM480.318 364H401.509V240.091H480.311V363.432C480.312 363.622 480.315 363.811 480.318 364ZM238.866 364H65.8438V167H192.04C213.739 167 232.725 171.283 248.999 179.848C265.273 188.413 277.931 200.452 286.972 215.965C296.014 231.478 300.534 249.608 300.534 270.355C300.534 291.293 295.871 309.423 286.544 324.745C277.313 340.067 264.322 351.869 247.572 360.148C244.75 361.551 241.848 362.835 238.866 364ZM145.216 310.898H173.196C182.523 310.898 190.469 309.28 197.036 306.044C203.698 302.713 208.79 298.002 212.311 291.911C215.928 285.82 217.736 278.635 217.736 270.355C217.736 261.98 215.928 254.842 212.311 248.942C208.79 242.946 203.698 238.378 197.036 235.237C190.469 232.001 182.523 230.384 173.196 230.384H145.216V310.898Z" fill="#AF94F9"/>
</svg>
